<?xml version="1.0" encoding="utf-8"?>
<!-- Generator: Adobe Illustrator 17.0.0, SVG Export Plug-In . SVG Version: 6.00 Build 0)  -->
<!DOCTYPE svg PUBLIC "-//W3C//DTD SVG 1.1//EN" "http://www.w3.org/Graphics/SVG/1.1/DTD/svg11.dtd">
<svg version="1.1" id="Layer_1" xmlns="http://www.w3.org/2000/svg" xmlns:xlink="http://www.w3.org/1999/xlink" x="0px" y="0px"
	 width="638.096px" height="135.285px" viewBox="0 0 638.096 135.285" enable-background="new 0 0 638.096 135.285"
	 xml:space="preserve">
<g>
	<g>
		<polygon fill="#008ECC" points="125.739,72.77 125.739,72.77 78.534,72.77 72.337,72.77 66.138,72.77 72.337,83.421 
			119.541,83.421 125.739,83.421 131.938,83.421 		"/>
		<polygon fill="#008ECC" points="72.217,62.318 72.217,62.318 48.568,21.466 45.463,16.102 42.357,10.737 36.243,21.437 
			59.895,62.29 63,67.655 66.107,73.019 		"/>
		<polygon fill="#008ECC" points="96.032,62.069 96.032,62.069 72.382,21.217 69.276,15.853 66.171,10.489 60.058,21.189 
			83.709,62.042 86.815,67.406 89.92,72.77 		"/>
		<polygon fill="#008ECC" points="119.958,62.069 119.958,62.069 96.309,21.217 93.202,15.853 90.097,10.489 83.984,21.189 
			107.636,62.042 110.741,67.406 113.846,72.77 		"/>
		<polygon fill="#008ECC" points="53.815,72.77 53.815,72.77 30.054,113.558 26.934,118.915 23.815,124.271 36.137,124.277 
			59.898,83.487 63.018,78.131 66.138,72.776 		"/>
		<polygon fill="#008ECC" points="41.908,52.343 41.908,52.343 18.147,93.131 15.027,98.488 11.907,103.843 24.231,103.848 
			47.991,63.06 51.112,57.704 54.231,52.349 		"/>
		<polygon fill="#008ECC" points="30.001,31.593 30.001,31.593 6.24,72.381 3.12,77.737 0,83.092 12.323,83.098 36.084,42.31 
			39.204,36.955 42.324,31.599 		"/>
		<polygon fill="#008ECC" points="113.833,93.226 113.833,93.226 66.627,93.226 60.429,93.226 54.231,93.226 60.429,103.961 
			107.634,103.961 113.833,103.961 120.031,103.961 		"/>
		<polygon fill="#008ECC" points="101.925,114.061 101.925,114.061 54.721,114.061 48.523,114.061 42.324,114.061 48.523,124.796 
			95.726,124.796 101.925,124.796 108.124,124.796 		"/>
	</g>
	<g>
		<g>
			
				<linearGradient id="SVGID_1_" gradientUnits="userSpaceOnUse" x1="182.5555" y1="46.7273" x2="182.5555" y2="136.1119" gradientTransform="matrix(1 0 0 -1 7.9575 159.4492)">
				<stop  offset="0" style="stop-color:#231F20"/>
				<stop  offset="0.8032" style="stop-color:#555555"/>
			</linearGradient>
			<path fill="url(#SVGID_1_)" d="M224.578,41.892h-25.621v69.681h-17.233V41.892h-25.276V27.933h68.13V41.892z"/>
			
				<linearGradient id="SVGID_2_" gradientUnits="userSpaceOnUse" x1="239.1965" y1="46.7273" x2="239.1965" y2="136.1119" gradientTransform="matrix(1 0 0 -1 7.9575 159.4492)">
				<stop  offset="0" style="stop-color:#231F20"/>
				<stop  offset="0.8032" style="stop-color:#555555"/>
			</linearGradient>
			<path fill="url(#SVGID_2_)" d="M264.502,64.985c-2.26-0.306-4.251-0.46-5.974-0.46c-6.281,0-10.397,2.126-12.35,6.377v40.671
				h-16.602V49.418h15.682l0.46,7.41c3.332-5.706,7.946-8.559,13.844-8.559c1.838,0,3.562,0.25,5.17,0.747L264.502,64.985z"/>
			
				<linearGradient id="SVGID_3_" gradientUnits="userSpaceOnUse" x1="287.9676" y1="46.7272" x2="287.9676" y2="136.1118" gradientTransform="matrix(1 0 0 -1 7.9575 159.4492)">
				<stop  offset="0" style="stop-color:#231F20"/>
				<stop  offset="0.8032" style="stop-color:#555555"/>
			</linearGradient>
			<path fill="url(#SVGID_3_)" d="M306.782,111.573c-0.767-1.494-1.321-3.351-1.666-5.572c-4.021,4.48-9.249,6.721-15.683,6.721
				c-6.089,0-11.135-1.761-15.136-5.285c-4.003-3.523-6.003-7.965-6.003-13.327c0-6.587,2.441-11.642,7.324-15.166
				c4.883-3.523,11.939-5.304,21.169-5.343h7.64V70.04c0-2.872-0.738-5.17-2.212-6.893c-1.475-1.723-3.801-2.585-6.98-2.585
				c-2.796,0-4.989,0.67-6.577,2.01c-1.59,1.341-2.384,3.179-2.384,5.515h-16.602c0-3.599,1.11-6.931,3.332-9.995
				c2.221-3.064,5.361-5.466,9.421-7.21c4.059-1.742,8.616-2.614,13.672-2.614c7.659,0,13.738,1.924,18.239,5.774
				c4.5,3.849,6.75,9.258,6.75,16.228v26.941c0.038,5.899,0.862,10.36,2.47,13.385v0.977
				C323.556,111.573,306.782,111.573,306.782,111.573z M293.053,100.027c2.45,0,4.71-0.546,6.779-1.638
				c2.068-1.091,3.599-2.556,4.596-4.394V83.31h-6.204c-8.311,0-12.734,2.872-13.27,8.617l-0.057,0.977
				c0,2.067,0.727,3.772,2.183,5.112C288.533,99.357,290.525,100.027,293.053,100.027z"/>
			
				<linearGradient id="SVGID_4_" gradientUnits="userSpaceOnUse" x1="351.301" y1="46.7272" x2="351.301" y2="136.1122" gradientTransform="matrix(1 0 0 -1 7.9575 159.4492)">
				<stop  offset="0" style="stop-color:#231F20"/>
				<stop  offset="0.8032" style="stop-color:#555555"/>
			</linearGradient>
			<path fill="url(#SVGID_4_)" d="M331.254,80.036c0-9.688,2.173-17.406,6.52-23.151c4.346-5.744,10.292-8.617,17.837-8.617
				c6.051,0,11.048,2.26,14.993,6.779v-31.71h16.659v88.236H372.27l-0.804-6.606c-4.136,5.17-9.459,7.755-15.97,7.755
				c-7.315,0-13.183-2.881-17.607-8.645C333.465,98.313,331.254,90.299,331.254,80.036z M347.855,81.217
				c0,5.848,1.015,10.329,3.045,13.446c2.029,3.116,4.978,4.674,8.846,4.674c5.131,0,8.751-2.173,10.857-6.52V68.174
				c-2.068-4.347-5.649-6.521-10.742-6.521C351.857,61.653,347.855,68.175,347.855,81.217z"/>
			
				<linearGradient id="SVGID_5_" gradientUnits="userSpaceOnUse" x1="401.364" y1="46.7273" x2="401.364" y2="136.1119" gradientTransform="matrix(1 0 0 -1 7.9575 159.4492)">
				<stop  offset="0" style="stop-color:#231F20"/>
				<stop  offset="0.8032" style="stop-color:#555555"/>
			</linearGradient>
			<path fill="url(#SVGID_5_)" d="M400.015,33.333c0-2.489,0.833-4.538,2.499-6.147c1.666-1.608,3.935-2.412,6.807-2.412
				c2.834,0,5.093,0.804,6.779,2.412c1.685,1.608,2.528,3.658,2.528,6.147c0,2.527-0.853,4.596-2.557,6.204
				c-1.704,1.608-3.955,2.413-6.75,2.413c-2.796,0-5.046-0.804-6.749-2.413C400.867,37.928,400.015,35.86,400.015,33.333z
				 M417.651,111.573h-16.659V49.418h16.659V111.573z"/>
			
				<linearGradient id="SVGID_6_" gradientUnits="userSpaceOnUse" x1="436.0325" y1="46.7262" x2="436.0325" y2="136.1107" gradientTransform="matrix(1 0 0 -1 7.9575 159.4492)">
				<stop  offset="0" style="stop-color:#231F20"/>
				<stop  offset="0.8032" style="stop-color:#555555"/>
			</linearGradient>
			<path fill="url(#SVGID_6_)" d="M451.198,34.137v15.281h10.628v12.178h-10.628v31.021c0,2.298,0.441,3.945,1.322,4.94
				c0.881,0.997,2.565,1.494,5.056,1.494c1.839,0,3.465-0.134,4.883-0.402v12.58c-3.255,0.996-6.607,1.494-10.053,1.494
				c-11.642,0-17.578-5.878-17.808-17.635V61.596h-9.077V49.418h9.077V34.137H451.198z"/>
			
				<linearGradient id="SVGID_7_" gradientUnits="userSpaceOnUse" x1="472.3085" y1="46.7273" x2="472.3085" y2="136.1119" gradientTransform="matrix(1 0 0 -1 7.9575 159.4492)">
				<stop  offset="0" style="stop-color:#231F20"/>
				<stop  offset="0.8032" style="stop-color:#555555"/>
			</linearGradient>
			<path fill="url(#SVGID_7_)" d="M470.96,33.333c0-2.489,0.833-4.538,2.499-6.147c1.666-1.608,3.934-2.412,6.807-2.412
				c2.834,0,5.092,0.804,6.778,2.412c1.685,1.608,2.528,3.658,2.528,6.147c0,2.527-0.853,4.596-2.556,6.204
				c-1.705,1.608-3.955,2.413-6.75,2.413c-2.796,0-5.047-0.804-6.75-2.413C471.812,37.928,470.96,35.86,470.96,33.333z
				 M488.596,111.573h-16.659V49.418h16.659V111.573z"/>
			
				<linearGradient id="SVGID_8_" gradientUnits="userSpaceOnUse" x1="521.166" y1="46.7282" x2="521.166" y2="136.1128" gradientTransform="matrix(1 0 0 -1 7.9575 159.4492)">
				<stop  offset="0" style="stop-color:#231F20"/>
				<stop  offset="0.8032" style="stop-color:#555555"/>
			</linearGradient>
			<path fill="url(#SVGID_8_)" d="M499.682,79.921c0-6.165,1.186-11.662,3.562-16.487c2.374-4.825,5.791-8.559,10.254-11.202
				c4.461-2.643,9.641-3.964,15.539-3.964c8.387,0,15.232,2.566,20.537,7.698c5.303,5.132,8.262,12.102,8.875,20.91l0.116,4.251
				c0,9.535-2.663,17.185-7.985,22.949c-5.323,5.764-12.466,8.645-21.427,8.645s-16.113-2.872-21.456-8.617
				c-5.342-5.744-8.013-13.557-8.013-23.437v-0.746H499.682z M516.284,81.099c0,5.907,1.11,10.424,3.332,13.55
				c2.22,3.126,5.4,4.688,9.535,4.688c4.022,0,7.161-1.544,9.422-4.631c2.259-3.088,3.389-8.026,3.389-14.815
				c0-5.791-1.13-10.279-3.389-13.463c-2.26-3.183-5.439-4.775-9.536-4.775c-4.06,0-7.2,1.582-9.421,4.746
				C517.394,69.565,516.284,74.465,516.284,81.099z"/>
			
				<linearGradient id="SVGID_9_" gradientUnits="userSpaceOnUse" x1="587.313" y1="46.7273" x2="587.313" y2="136.1119" gradientTransform="matrix(1 0 0 -1 7.9575 159.4492)">
				<stop  offset="0" style="stop-color:#231F20"/>
				<stop  offset="0.8032" style="stop-color:#555555"/>
			</linearGradient>
			<path fill="url(#SVGID_9_)" d="M584.069,49.418l0.517,7.18c4.442-5.552,10.397-8.33,17.865-8.33
				c6.586,0,11.489,1.934,14.706,5.802s4.863,9.651,4.94,17.348v40.154h-16.601V71.729c0-3.531-0.767-6.093-2.298-7.687
				c-1.532-1.592-4.078-2.389-7.64-2.389c-4.673,0-8.177,1.996-10.512,5.988v43.932h-16.602V49.418H584.069z"/>
		</g>
	</g>
</g>
</svg>
